<mxfile host="app.diagrams.net" modified="2020-10-06T14:22:44.122Z" agent="5.0 (Windows NT 10.0; WOW64) AppleWebKit/537.36 (KHTML, like Gecko) Chrome/85.0.4183.121 Safari/537.36 OPR/71.0.3770.198" etag="f13izrwYrf7Kf_G4-moR" version="13.7.7" type="github">
  <diagram id="_MDs91QZ9woD75Nyu_sJ" name="Page-1">
    <mxGraphModel dx="998" dy="548" grid="1" gridSize="10" guides="1" tooltips="1" connect="1" arrows="1" fold="1" page="1" pageScale="1" pageWidth="827" pageHeight="1169" math="0" shadow="0">
      <root>
        <mxCell id="0" />
        <mxCell id="1" parent="0" />
        <mxCell id="ZryqFvtcSvUIrpEXO1Tp-1" value="FILE" style="rounded=0;whiteSpace=wrap;html=1;" vertex="1" parent="1">
          <mxGeometry x="550" y="180" width="120" height="60" as="geometry" />
        </mxCell>
        <mxCell id="ZryqFvtcSvUIrpEXO1Tp-2" value="USER" style="rounded=0;whiteSpace=wrap;html=1;" vertex="1" parent="1">
          <mxGeometry x="140" y="220" width="120" height="60" as="geometry" />
        </mxCell>
        <mxCell id="ZryqFvtcSvUIrpEXO1Tp-3" value="Uploaded by" style="ellipse;whiteSpace=wrap;html=1;" vertex="1" parent="1">
          <mxGeometry x="414" y="110" width="60" height="40" as="geometry" />
        </mxCell>
        <mxCell id="ZryqFvtcSvUIrpEXO1Tp-4" value="Time of uploading" style="ellipse;whiteSpace=wrap;html=1;" vertex="1" parent="1">
          <mxGeometry x="490" y="110" width="60" height="40" as="geometry" />
        </mxCell>
        <mxCell id="ZryqFvtcSvUIrpEXO1Tp-5" value="Rating" style="ellipse;whiteSpace=wrap;html=1;" vertex="1" parent="1">
          <mxGeometry x="630" y="110" width="60" height="40" as="geometry" />
        </mxCell>
        <mxCell id="ZryqFvtcSvUIrpEXO1Tp-6" value="Extension of file" style="ellipse;whiteSpace=wrap;html=1;" vertex="1" parent="1">
          <mxGeometry x="560" y="110" width="60" height="40" as="geometry" />
        </mxCell>
        <mxCell id="ZryqFvtcSvUIrpEXO1Tp-7" value="" style="endArrow=none;html=1;exitX=0;exitY=0;exitDx=0;exitDy=0;entryX=0.5;entryY=1;entryDx=0;entryDy=0;" edge="1" parent="1" source="ZryqFvtcSvUIrpEXO1Tp-1" target="ZryqFvtcSvUIrpEXO1Tp-3">
          <mxGeometry width="50" height="50" relative="1" as="geometry">
            <mxPoint x="390" y="290" as="sourcePoint" />
            <mxPoint x="440" y="240" as="targetPoint" />
          </mxGeometry>
        </mxCell>
        <mxCell id="ZryqFvtcSvUIrpEXO1Tp-8" value="&lt;span style=&quot;color: rgba(0 , 0 , 0 , 0) ; font-family: monospace ; font-size: 0px&quot;&gt;%3CmxGraphModel%3E%3Croot%3E%3CmxCell%20id%3D%220%22%2F%3E%3CmxCell%20id%3D%221%22%20parent%3D%220%22%2F%3E%3CmxCell%20id%3D%222%22%20value%3D%22%22%20style%3D%22ellipse%3BwhiteSpace%3Dwrap%3Bhtml%3D1%3B%22%20vertex%3D%221%22%20parent%3D%221%22%3E%3CmxGeometry%20x%3D%22350%22%20y%3D%22230%22%20width%3D%2260%22%20height%3D%2240%22%20as%3D%22geometry%22%2F%3E%3C%2FmxCell%3E%3C%2Froot%3E%3C%2FmxGraphModel%3E&lt;/span&gt;Tags" style="ellipse;whiteSpace=wrap;html=1;" vertex="1" parent="1">
          <mxGeometry x="700" y="110" width="60" height="40" as="geometry" />
        </mxCell>
        <mxCell id="ZryqFvtcSvUIrpEXO1Tp-9" value="" style="endArrow=none;html=1;entryX=0.5;entryY=1;entryDx=0;entryDy=0;exitX=0.5;exitY=0;exitDx=0;exitDy=0;" edge="1" parent="1" source="ZryqFvtcSvUIrpEXO1Tp-1" target="ZryqFvtcSvUIrpEXO1Tp-6">
          <mxGeometry width="50" height="50" relative="1" as="geometry">
            <mxPoint x="610" y="210" as="sourcePoint" />
            <mxPoint x="660" y="160" as="targetPoint" />
          </mxGeometry>
        </mxCell>
        <mxCell id="ZryqFvtcSvUIrpEXO1Tp-10" value="" style="endArrow=none;html=1;exitX=0.25;exitY=0;exitDx=0;exitDy=0;entryX=0.5;entryY=1;entryDx=0;entryDy=0;" edge="1" parent="1" source="ZryqFvtcSvUIrpEXO1Tp-1" target="ZryqFvtcSvUIrpEXO1Tp-4">
          <mxGeometry width="50" height="50" relative="1" as="geometry">
            <mxPoint x="390" y="290" as="sourcePoint" />
            <mxPoint x="440" y="240" as="targetPoint" />
          </mxGeometry>
        </mxCell>
        <mxCell id="ZryqFvtcSvUIrpEXO1Tp-11" value="" style="endArrow=none;html=1;entryX=0.4;entryY=0.99;entryDx=0;entryDy=0;entryPerimeter=0;exitX=0.75;exitY=0;exitDx=0;exitDy=0;" edge="1" parent="1" source="ZryqFvtcSvUIrpEXO1Tp-1" target="ZryqFvtcSvUIrpEXO1Tp-5">
          <mxGeometry width="50" height="50" relative="1" as="geometry">
            <mxPoint x="390" y="290" as="sourcePoint" />
            <mxPoint x="440" y="240" as="targetPoint" />
          </mxGeometry>
        </mxCell>
        <mxCell id="ZryqFvtcSvUIrpEXO1Tp-12" value="" style="endArrow=none;html=1;entryX=0.5;entryY=1;entryDx=0;entryDy=0;exitX=1;exitY=0;exitDx=0;exitDy=0;" edge="1" parent="1" source="ZryqFvtcSvUIrpEXO1Tp-1" target="ZryqFvtcSvUIrpEXO1Tp-8">
          <mxGeometry width="50" height="50" relative="1" as="geometry">
            <mxPoint x="390" y="290" as="sourcePoint" />
            <mxPoint x="440" y="240" as="targetPoint" />
          </mxGeometry>
        </mxCell>
        <mxCell id="ZryqFvtcSvUIrpEXO1Tp-13" value="Password" style="ellipse;whiteSpace=wrap;html=1;" vertex="1" parent="1">
          <mxGeometry x="150" y="160" width="60" height="40" as="geometry" />
        </mxCell>
        <mxCell id="ZryqFvtcSvUIrpEXO1Tp-14" value="Login" style="ellipse;whiteSpace=wrap;html=1;" vertex="1" parent="1">
          <mxGeometry x="80" y="160" width="60" height="40" as="geometry" />
        </mxCell>
        <mxCell id="ZryqFvtcSvUIrpEXO1Tp-15" value="" style="endArrow=none;html=1;entryX=0.5;entryY=1;entryDx=0;entryDy=0;exitX=0;exitY=0;exitDx=0;exitDy=0;" edge="1" parent="1" source="ZryqFvtcSvUIrpEXO1Tp-2" target="ZryqFvtcSvUIrpEXO1Tp-14">
          <mxGeometry width="50" height="50" relative="1" as="geometry">
            <mxPoint x="390" y="290" as="sourcePoint" />
            <mxPoint x="440" y="240" as="targetPoint" />
          </mxGeometry>
        </mxCell>
        <mxCell id="ZryqFvtcSvUIrpEXO1Tp-16" value="" style="endArrow=none;html=1;entryX=0.5;entryY=1;entryDx=0;entryDy=0;exitX=0.5;exitY=0;exitDx=0;exitDy=0;" edge="1" parent="1" source="ZryqFvtcSvUIrpEXO1Tp-2" target="ZryqFvtcSvUIrpEXO1Tp-13">
          <mxGeometry width="50" height="50" relative="1" as="geometry">
            <mxPoint x="390" y="290" as="sourcePoint" />
            <mxPoint x="440" y="240" as="targetPoint" />
          </mxGeometry>
        </mxCell>
        <mxCell id="ZryqFvtcSvUIrpEXO1Tp-17" value="Available tags" style="ellipse;whiteSpace=wrap;html=1;" vertex="1" parent="1">
          <mxGeometry x="220" y="160" width="60" height="40" as="geometry" />
        </mxCell>
        <mxCell id="ZryqFvtcSvUIrpEXO1Tp-18" value="" style="endArrow=none;html=1;entryX=0.5;entryY=1;entryDx=0;entryDy=0;exitX=0.75;exitY=0;exitDx=0;exitDy=0;" edge="1" parent="1" source="ZryqFvtcSvUIrpEXO1Tp-2" target="ZryqFvtcSvUIrpEXO1Tp-17">
          <mxGeometry width="50" height="50" relative="1" as="geometry">
            <mxPoint x="390" y="280" as="sourcePoint" />
            <mxPoint x="440" y="230" as="targetPoint" />
          </mxGeometry>
        </mxCell>
        <mxCell id="ZryqFvtcSvUIrpEXO1Tp-19" value="" style="endArrow=none;html=1;entryX=1;entryY=0.25;entryDx=0;entryDy=0;exitX=0;exitY=0.5;exitDx=0;exitDy=0;" edge="1" parent="1" source="ZryqFvtcSvUIrpEXO1Tp-20" target="ZryqFvtcSvUIrpEXO1Tp-1">
          <mxGeometry width="50" height="50" relative="1" as="geometry">
            <mxPoint x="720" y="195" as="sourcePoint" />
            <mxPoint x="440" y="230" as="targetPoint" />
          </mxGeometry>
        </mxCell>
        <mxCell id="ZryqFvtcSvUIrpEXO1Tp-20" value="Size" style="ellipse;whiteSpace=wrap;html=1;" vertex="1" parent="1">
          <mxGeometry x="720" y="170" width="60" height="40" as="geometry" />
        </mxCell>
        <mxCell id="ZryqFvtcSvUIrpEXO1Tp-21" value="GROUPS OF FILES WITH THE SAME TAG" style="rounded=0;whiteSpace=wrap;html=1;" vertex="1" parent="1">
          <mxGeometry x="460" y="300" width="120" height="60" as="geometry" />
        </mxCell>
        <mxCell id="ZryqFvtcSvUIrpEXO1Tp-22" value="" style="endArrow=none;html=1;entryX=0;entryY=1;entryDx=0;entryDy=0;exitX=0.5;exitY=0;exitDx=0;exitDy=0;" edge="1" parent="1" source="ZryqFvtcSvUIrpEXO1Tp-21" target="ZryqFvtcSvUIrpEXO1Tp-1">
          <mxGeometry width="50" height="50" relative="1" as="geometry">
            <mxPoint x="390" y="270" as="sourcePoint" />
            <mxPoint x="440" y="220" as="targetPoint" />
          </mxGeometry>
        </mxCell>
        <mxCell id="ZryqFvtcSvUIrpEXO1Tp-23" value="" style="endArrow=none;html=1;entryX=1;entryY=0.5;entryDx=0;entryDy=0;exitX=0;exitY=0.25;exitDx=0;exitDy=0;" edge="1" parent="1" source="ZryqFvtcSvUIrpEXO1Tp-1" target="ZryqFvtcSvUIrpEXO1Tp-24">
          <mxGeometry width="50" height="50" relative="1" as="geometry">
            <mxPoint x="390" y="270" as="sourcePoint" />
            <mxPoint x="440" y="220" as="targetPoint" />
          </mxGeometry>
        </mxCell>
        <mxCell id="ZryqFvtcSvUIrpEXO1Tp-24" value="Name" style="ellipse;whiteSpace=wrap;html=1;" vertex="1" parent="1">
          <mxGeometry x="400" y="170" width="60" height="40" as="geometry" />
        </mxCell>
        <mxCell id="ZryqFvtcSvUIrpEXO1Tp-25" value="Available for" style="rhombus;whiteSpace=wrap;html=1;" vertex="1" parent="1">
          <mxGeometry x="270" y="290" width="140" height="80" as="geometry" />
        </mxCell>
        <mxCell id="ZryqFvtcSvUIrpEXO1Tp-26" value="" style="endArrow=none;html=1;entryX=1;entryY=1;entryDx=0;entryDy=0;exitX=0;exitY=0.5;exitDx=0;exitDy=0;" edge="1" parent="1" source="ZryqFvtcSvUIrpEXO1Tp-25" target="ZryqFvtcSvUIrpEXO1Tp-2">
          <mxGeometry width="50" height="50" relative="1" as="geometry">
            <mxPoint x="390" y="270" as="sourcePoint" />
            <mxPoint x="440" y="220" as="targetPoint" />
          </mxGeometry>
        </mxCell>
        <mxCell id="ZryqFvtcSvUIrpEXO1Tp-27" value="" style="endArrow=none;html=1;entryX=0;entryY=0.5;entryDx=0;entryDy=0;exitX=1;exitY=0.5;exitDx=0;exitDy=0;" edge="1" parent="1" source="ZryqFvtcSvUIrpEXO1Tp-25" target="ZryqFvtcSvUIrpEXO1Tp-21">
          <mxGeometry width="50" height="50" relative="1" as="geometry">
            <mxPoint x="420" y="340" as="sourcePoint" />
            <mxPoint x="440" y="220" as="targetPoint" />
          </mxGeometry>
        </mxCell>
        <mxCell id="ZryqFvtcSvUIrpEXO1Tp-28" value="Role" style="ellipse;whiteSpace=wrap;html=1;" vertex="1" parent="1">
          <mxGeometry x="290" y="160" width="60" height="40" as="geometry" />
        </mxCell>
        <mxCell id="ZryqFvtcSvUIrpEXO1Tp-29" value="" style="endArrow=none;html=1;exitX=1;exitY=0;exitDx=0;exitDy=0;entryX=0.5;entryY=1;entryDx=0;entryDy=0;" edge="1" parent="1" source="ZryqFvtcSvUIrpEXO1Tp-2" target="ZryqFvtcSvUIrpEXO1Tp-28">
          <mxGeometry width="50" height="50" relative="1" as="geometry">
            <mxPoint x="390" y="270" as="sourcePoint" />
            <mxPoint x="440" y="220" as="targetPoint" />
          </mxGeometry>
        </mxCell>
        <mxCell id="ZryqFvtcSvUIrpEXO1Tp-30" value="Moderates content for" style="rhombus;whiteSpace=wrap;html=1;" vertex="1" parent="1">
          <mxGeometry x="100" y="350" width="140" height="60" as="geometry" />
        </mxCell>
        <mxCell id="ZryqFvtcSvUIrpEXO1Tp-31" value="" style="endArrow=none;html=1;exitX=0;exitY=0.5;exitDx=0;exitDy=0;entryX=0;entryY=1;entryDx=0;entryDy=0;" edge="1" parent="1" source="ZryqFvtcSvUIrpEXO1Tp-30" target="ZryqFvtcSvUIrpEXO1Tp-2">
          <mxGeometry width="50" height="50" relative="1" as="geometry">
            <mxPoint x="390" y="270" as="sourcePoint" />
            <mxPoint x="440" y="220" as="targetPoint" />
          </mxGeometry>
        </mxCell>
        <mxCell id="ZryqFvtcSvUIrpEXO1Tp-32" value="" style="endArrow=none;html=1;exitX=1;exitY=0.5;exitDx=0;exitDy=0;entryX=0.5;entryY=1;entryDx=0;entryDy=0;" edge="1" parent="1" source="ZryqFvtcSvUIrpEXO1Tp-30" target="ZryqFvtcSvUIrpEXO1Tp-2">
          <mxGeometry width="50" height="50" relative="1" as="geometry">
            <mxPoint x="390" y="270" as="sourcePoint" />
            <mxPoint x="440" y="220" as="targetPoint" />
          </mxGeometry>
        </mxCell>
        <mxCell id="ZryqFvtcSvUIrpEXO1Tp-33" value="Moderators" style="text;html=1;strokeColor=none;fillColor=none;align=center;verticalAlign=middle;whiteSpace=wrap;rounded=0;" vertex="1" parent="1">
          <mxGeometry x="40" y="340" width="70" height="20" as="geometry" />
        </mxCell>
        <mxCell id="ZryqFvtcSvUIrpEXO1Tp-35" value="Users" style="text;html=1;strokeColor=none;fillColor=none;align=center;verticalAlign=middle;whiteSpace=wrap;rounded=0;" vertex="1" parent="1">
          <mxGeometry x="220" y="340" width="40" height="20" as="geometry" />
        </mxCell>
      </root>
    </mxGraphModel>
  </diagram>
</mxfile>
